<svg xmlns="http://www.w3.org/2000/svg" viewBox="0 0 156.07 96.42"><defs><style>.cls-1{fill:#fff;}</style></defs><title>amban</title><g id="Layer_2" data-name="Layer 2"><g id="图层_1" data-name="图层 1"><rect class="cls-1" x="31.03" y="74.96" width="2.62" height="21.46"/><polygon class="cls-1" points="40.06 75.63 40.06 96.42 37.44 96.42 37.44 74.96 39.2 74.96 40.06 75.63"/><polygon class="cls-1" points="64.05 74.96 64.05 96.42 62.29 96.42 61.43 95.75 61.43 74.96 64.05 74.96"/><polygon class="cls-1" points="64.05 94.47 64.05 95.57 63.38 96.42 62.29 96.42 61.43 95.75 40.06 78.97 37.44 76.91 37.44 75.82 38.11 74.96 39.2 74.96 40.06 75.63 61.43 92.42 64.05 94.47"/><polygon class="cls-1" points="26.61 74.96 26.61 76.92 25.77 77.57 0 77.57 0 74.96 26.61 74.96"/><polygon class="cls-1" points="26.61 93.8 26.61 96.42 0 96.42 0 94.47 0.86 93.8 26.61 93.8"/><polygon class="cls-1" points="26.61 75.81 26.61 76.92 25.77 77.57 5.1 93.8 1.76 96.42 0.67 96.42 0 95.56 0 94.47 0.86 93.8 21.53 77.57 24.85 74.96 25.94 74.96 26.61 75.81"/><rect class="cls-1" x="68.11" y="84.38" width="2.62" height="12.04"/><path class="cls-1" d="M89.91,87H68.11V84.38h21.8a2.2,2.2,0,0,0,2.2-2.2v-2.4a2.2,2.2,0,0,0-2.2-2.2H68.11V75h21.8a4.82,4.82,0,0,1,4.81,4.82v2.4A4.82,4.82,0,0,1,89.91,87Z"/><path class="cls-1" d="M89.91,96.42H68.11V93.81h21.8a2.21,2.21,0,0,0,2.2-2.2V89.2a2.21,2.21,0,0,0-2.2-2.2H68.11V84.38h21.8a4.82,4.82,0,0,1,4.81,4.82v2.41A4.82,4.82,0,0,1,89.91,96.42Z"/><rect class="cls-1" x="98.79" y="74.96" width="2.62" height="21.46"/><rect class="cls-1" x="98.79" y="93.81" width="26.61" height="2.62"/><rect class="cls-1" x="129.47" y="74.96" width="2.62" height="21.46"/><rect class="cls-1" x="129.47" y="93.81" width="26.61" height="2.62"/><rect class="cls-1" x="129.47" y="84.38" width="26.61" height="2.62"/><rect class="cls-1" x="129.47" y="74.96" width="26.61" height="2.62"/><path class="cls-1" d="M101.83,0H92.11L90.29,3.79l-12,25,8.83.63,2.44.17-1.4,1.84L67.32,58.92h34.51a5.68,5.68,0,0,0,5.67-5.67V5.67A5.68,5.68,0,0,0,101.83,0Zm.58,53.51H97.65V50h4.76Zm0-7.43H97.65V42.56h4.76Zm0-7.43H97.65V35.13h4.76Zm0-7.43H97.65V27.7h4.76Zm0-7.43H97.65V20.27h4.76Zm0-7.42H97.65V12.84h4.76Zm0-7.43H97.65V5.41h4.76Z"/><path class="cls-1" d="M75,32.8,71.85,33l1.22-3.21,9-23.73L68,6.7l-4.25.18V0H54.25a5.68,5.68,0,0,0-5.67,5.67V53.25a5.68,5.68,0,0,0,5.67,5.67H67.32L84.68,32.11ZM58.42,53.51H53.67V50h4.75Zm0-7.43H53.67V42.56h4.75Zm0-7.43H53.67V35.13h4.75Zm0-7.43H53.67V27.7h4.75Zm0-7.43H53.67V20.27h4.75Zm0-7.42H53.67V12.84h4.75Zm0-7.43H53.67V5.41h4.75Z"/></g></g></svg>